<?xml version="1.0" standalone="no"?>
<!DOCTYPE svg PUBLIC "-//W3C//DTD SVG 20010904//EN"
 "http://www.w3.org/TR/2001/REC-SVG-20010904/DTD/svg10.dtd">
<svg version="1.0" xmlns="http://www.w3.org/2000/svg"
 width="474.000000pt" height="474.000000pt" viewBox="0 0 474.000000 474.000000"
 preserveAspectRatio="xMidYMid meet">
<metadata>
Created by potrace 1.11, written by Peter Selinger 2001-2013
</metadata>
<g transform="translate(0.000000,474.000000) scale(0.100000,-0.100000)"
fill="#000000" stroke="none">
<path d="M2135 4681 c-3 -5 -2 -12 3 -15 5 -3 9 1 9 9 0 17 -3 19 -12 6z"/>
<path d="M2808 4683 c7 -3 16 -2 19 1 4 3 -2 6 -13 5 -11 0 -14 -3 -6 -6z"/>
<path d="M2058 4638 c-2 -4 -33 -9 -70 -10 -36 -2 -64 -5 -62 -7 3 -3 -34 -13
-82 -22 -48 -10 -119 -28 -158 -40 -39 -13 -75 -23 -81 -24 -5 0 -18 -8 -28
-18 -11 -11 -25 -16 -35 -12 -9 3 -13 3 -9 -1 3 -4 -17 -24 -46 -45 -77 -55
-85 -64 -97 -107 -9 -35 -15 -41 -45 -46 -77 -15 -233 -140 -392 -316 -173
-190 -286 -380 -358 -602 -18 -54 -34 -96 -36 -94 -2 2 -5 -14 -6 -35 0 -22
-4 -47 -7 -56 -6 -13 -9 -12 -26 7 -11 12 -17 26 -14 31 3 5 -2 6 -10 3 -9 -3
-16 -1 -16 5 0 6 -11 21 -25 33 -13 11 -22 26 -18 31 3 6 1 7 -4 4 -6 -4 -19
3 -29 14 -34 38 -142 119 -178 134 -76 32 -146 5 -167 -65 -17 -55 -2 -130 66
-345 30 -93 77 -267 105 -385 76 -325 137 -508 204 -606 l25 -38 -40 -34 c-98
-84 -119 -208 -65 -377 95 -294 254 -617 393 -798 61 -79 171 -188 231 -229
26 -17 49 -35 50 -40 2 -4 8 -8 13 -8 19 0 79 -47 71 -55 -4 -5 -2 -5 5 -1 6
3 35 -7 63 -24 28 -17 106 -58 173 -92 67 -34 124 -65 125 -70 2 -4 8 -6 13
-3 4 3 26 -3 47 -14 108 -55 576 -229 684 -255 20 -5 33 -1 48 14 24 24 25 64
5 179 -8 47 -13 87 -10 89 2 2 0 14 -5 27 -5 13 -12 49 -16 82 -3 32 -8 61
-11 66 -2 4 10 7 28 7 25 0 42 10 81 50 l49 50 124 0 124 0 -4 -37 c-2 -21
-11 -83 -19 -138 -8 -55 -18 -120 -21 -145 -4 -25 -9 -52 -12 -60 -8 -23 -14
-122 -8 -146 2 -11 16 -26 31 -33 24 -10 45 -5 188 44 88 31 166 57 171 59 6
1 28 10 50 20 22 10 48 18 58 19 9 1 17 4 17 7 0 11 70 31 81 24 7 -4 9 -3 6
2 -3 6 24 23 61 39 312 133 575 282 718 406 25 21 50 36 56 33 7 -5 8 -2 3 5
-9 16 44 73 59 64 6 -3 8 -3 4 2 -4 4 6 26 23 49 158 209 289 471 395 786 65
192 52 296 -50 395 -23 22 -58 48 -78 57 -21 10 -38 23 -38 28 0 6 4 8 10 5 6
-4 7 1 3 11 -5 14 -3 16 13 10 15 -5 16 -4 7 5 -12 12 -7 42 6 35 4 -3 7 3 8
12 0 9 19 67 41 127 22 61 63 209 92 330 28 121 74 292 102 380 94 299 107
379 74 443 -31 59 -112 66 -191 15 -50 -33 -152 -119 -184 -155 -13 -15 -28
-25 -34 -21 -5 3 -7 1 -4 -4 4 -6 -3 -21 -14 -34 -12 -13 -36 -41 -54 -62
l-33 -38 -11 48 c-7 26 -12 51 -12 55 0 4 -6 23 -15 43 -8 19 -11 35 -8 35 4
0 2 6 -4 13 -15 19 -62 154 -55 161 4 3 1 6 -5 6 -9 0 -19 19 -27 50 -1 3 -21
46 -45 95 -24 50 -46 95 -49 100 -2 6 5 2 17 -8 11 -10 22 -14 25 -10 8 12 3
41 -8 50 -4 4 -5 3 -2 -3 8 -15 -12 -23 -35 -15 -13 4 -15 10 -8 21 16 25 11
35 -6 14 -8 -10 -13 -13 -9 -6 3 6 0 12 -7 12 -9 1 -7 5 5 14 9 7 17 17 17 22
0 4 -5 3 -12 -4 -17 -17 -33 -15 -18 3 11 13 10 14 -2 10 -10 -4 -24 8 -41 34
-15 22 -27 45 -27 50 0 5 -7 12 -16 15 -9 3 -14 13 -10 21 3 8 0 17 -6 21 -7
5 -8 2 -3 -7 8 -12 6 -12 -8 0 -9 7 -17 18 -17 24 0 5 -9 18 -21 28 -13 11
-18 23 -13 31 4 7 4 10 -1 6 -8 -8 -45 28 -45 44 0 4 -7 8 -16 8 -10 0 -14 6
-11 14 4 11 1 13 -10 9 -10 -4 -14 -2 -9 5 3 6 -3 13 -14 17 -18 6 -25 17 -21
38 1 5 -3 6 -8 3 -5 -3 -24 7 -42 23 -27 24 -31 32 -20 44 8 11 9 17 1 22 -6
4 -9 1 -8 -6 6 -23 -22 -20 -47 5 -14 14 -28 26 -31 26 -3 0 -19 9 -35 21 -26
18 -28 23 -17 37 12 15 11 16 -4 3 -16 -11 -24 -9 -70 20 -29 18 -56 37 -59
42 -3 5 -9 8 -13 7 -4 -1 -41 15 -83 36 -42 20 -118 51 -169 69 -51 18 -90 36
-86 40 4 5 2 5 -5 2 -6 -4 -49 2 -95 13 -158 37 -291 49 -530 47 -125 -1 -229
-5 -230 -9z m1922 -908 c0 -5 -2 -10 -4 -10 -3 0 -8 5 -11 10 -3 6 -1 10 4 10
6 0 11 -4 11 -10z"/>
<path d="M3186 4542 c-3 -5 1 -9 9 -9 8 0 12 4 9 9 -3 4 -7 8 -9 8 -2 0 -6 -4
-9 -8z"/>
<path d="M3596 4447 c3 -10 9 -15 12 -12 3 3 0 11 -7 18 -10 9 -11 8 -5 -6z"/>
<path d="M3536 4375 c-9 -26 -7 -32 5 -12 6 10 9 21 6 23 -2 3 -7 -2 -11 -11z"/>
<path d="M3694 4362 c4 -3 14 -7 22 -8 9 -1 13 0 10 4 -4 3 -14 7 -22 8 -9 1
-13 0 -10 -4z"/>
<path d="M3633 4295 c0 -8 4 -12 9 -9 5 3 6 10 3 15 -9 13 -12 11 -12 -6z"/>
<path d="M3676 4293 c-6 -14 -5 -15 5 -6 7 7 10 15 7 18 -3 3 -9 -2 -12 -12z"/>
<path d="M3720 4300 c-9 -6 -10 -10 -3 -10 6 0 15 5 18 10 8 12 4 12 -15 0z"/>
<path d="M3559 4253 c-13 -16 -12 -17 4 -4 16 13 21 21 13 21 -2 0 -10 -8 -17
-17z"/>
<path d="M3646 4258 c3 -4 9 -8 15 -8 5 0 9 4 9 8 0 5 -7 9 -15 9 -8 0 -12 -4
-9 -9z"/>
<path d="M3790 4259 c0 -5 5 -7 10 -4 6 3 10 8 10 11 0 2 -4 4 -10 4 -5 0 -10
-5 -10 -11z"/>
<path d="M3631 4207 c-13 -21 -12 -21 5 -5 10 10 16 20 13 22 -3 3 -11 -5 -18
-17z"/>
<path d="M3756 4222 c-3 -5 1 -9 9 -9 8 0 12 4 9 9 -3 4 -7 8 -9 8 -2 0 -6 -4
-9 -8z"/>
<path d="M3719 4208 c-7 -23 -4 -35 7 -35 9 0 11 4 4 12 -5 7 -7 15 -3 18 3 4
3 7 0 7 -4 0 -7 -1 -8 -2z"/>
<path d="M3815 4200 c-3 -5 -1 -10 4 -10 6 0 11 5 11 10 0 6 -2 10 -4 10 -3 0
-8 -4 -11 -10z"/>
<path d="M3755 4191 c-3 -5 -2 -12 3 -15 5 -3 9 1 9 9 0 17 -3 19 -12 6z"/>
<path d="M3816 4162 c-2 -4 -1 -14 4 -22 7 -11 9 -9 7 8 -1 24 -3 26 -11 14z"/>
<path d="M3726 4098 c3 -4 9 -8 15 -8 5 0 9 4 9 8 0 5 -7 9 -15 9 -8 0 -12 -4
-9 -9z"/>
<path d="M3879 4088 c-5 -18 -6 -38 -1 -34 7 8 12 36 6 36 -2 0 -4 -1 -5 -2z"/>
<path d="M3840 4055 c-7 -9 -11 -17 -9 -20 3 -2 10 5 17 15 14 24 10 26 -8 5z"/>
<path d="M3770 4030 c-9 -6 -10 -10 -3 -10 6 0 15 5 18 10 8 12 4 12 -15 0z"/>
<path d="M3869 3977 c6 -8 7 -18 3 -22 -4 -5 -1 -5 6 -1 10 6 10 11 1 22 -6 8
-14 14 -16 14 -3 0 0 -6 6 -13z"/>
<path d="M3832 3971 c-11 -6 -9 -9 6 -13 15 -4 19 -2 15 8 -6 16 -4 16 -21 5z"/>
<path d="M3870 3910 c6 -11 13 -20 16 -20 2 0 0 9 -6 20 -6 11 -13 20 -16 20
-2 0 0 -9 6 -20z"/>
<path d="M3850 3901 c0 -6 4 -13 10 -16 6 -3 7 1 4 9 -7 18 -14 21 -14 7z"/>
<path d="M3920 3906 c0 -2 8 -10 18 -17 15 -13 16 -12 3 4 -13 16 -21 21 -21
13z"/>
<path d="M3915 3861 c-3 -5 -2 -12 3 -15 5 -3 9 1 9 9 0 17 -3 19 -12 6z"/>
<path d="M4006 3842 c-3 -5 1 -9 9 -9 8 0 12 4 9 9 -3 4 -7 8 -9 8 -2 0 -6 -4
-9 -8z"/>
<path d="M3955 3809 c-4 -6 -5 -12 -2 -15 2 -3 7 2 10 11 7 17 1 20 -8 4z"/>
<path d="M3974 3798 c-3 -5 0 -7 7 -6 7 2 13 -2 14 -9 0 -6 4 -15 9 -20 5 -5
6 -3 2 5 -9 14 -1 15 23 3 13 -7 18 -6 18 4 0 7 -7 11 -15 7 -10 -3 -13 -1 -8
6 5 8 1 10 -10 5 -10 -4 -15 -2 -11 4 3 5 -1 10 -9 10 -8 0 -17 -4 -20 -9z"/>
<path d="M4080 3755 c-7 -8 -16 -12 -21 -9 -5 3 -9 1 -9 -5 0 -6 -6 -8 -14 -5
-18 7 -30 -12 -15 -22 8 -5 9 -3 4 6 -6 10 -4 12 7 7 9 -3 30 5 49 19 18 13
28 24 22 24 -6 0 -16 -7 -23 -15z"/>
<path d="M4108 3732 c-4 -12 1 -18 13 -18 12 0 15 4 9 12 -6 6 -7 14 -3 17 3
4 2 7 -4 7 -6 0 -13 -8 -15 -18z"/>
<path d="M4155 3711 c-3 -5 -2 -12 3 -15 5 -3 9 1 9 9 0 17 -3 19 -12 6z"/>
<path d="M3985 3701 c-3 -5 2 -16 10 -24 11 -12 12 -17 2 -20 -9 -4 -9 -6 0
-6 16 -1 26 16 14 24 -6 3 -8 12 -4 20 6 16 -12 21 -22 6z"/>
<path d="M4041 3697 c-1 -11 -6 -15 -13 -11 -7 5 -8 3 -3 -5 10 -16 29 2 22
21 -4 8 -6 7 -6 -5z"/>
<path d="M4077 3703 c-4 -3 -7 -11 -7 -17 0 -6 5 -5 12 2 6 6 9 14 7 17 -3 3
-9 2 -12 -2z"/>
<path d="M4094 3679 c-4 -7 -3 -9 4 -5 5 3 13 0 15 -6 4 -9 6 -10 6 -1 1 17
-16 25 -25 12z"/>
<path d="M4134 3679 c-4 -7 -3 -9 4 -5 5 3 13 0 15 -6 4 -9 6 -10 6 -1 1 17
-16 25 -25 12z"/>
<path d="M4050 3660 c0 -5 5 -10 10 -10 6 0 10 5 10 10 0 6 -4 10 -10 10 -5 0
-10 -4 -10 -10z"/>
<path d="M4180 3660 c8 -5 20 -10 25 -10 6 0 3 5 -5 10 -8 5 -19 10 -25 10 -5
0 -3 -5 5 -10z"/>
<path d="M4130 3651 c0 -5 5 -13 10 -16 6 -3 10 -2 10 4 0 5 -4 13 -10 16 -5
3 -10 2 -10 -4z"/>
<path d="M4030 3644 c0 -3 5 -14 10 -24 7 -13 7 -21 0 -25 -5 -3 -10 -1 -10 4
0 6 -5 11 -10 11 -6 0 -5 -8 2 -20 7 -11 19 -18 27 -15 9 4 11 0 7 -10 -3 -9
-2 -13 4 -10 11 7 8 27 -8 68 -10 24 -22 36 -22 21z"/>
<path d="M4275 3640 c3 -5 8 -10 11 -10 2 0 4 5 4 10 0 6 -5 10 -11 10 -5 0
-7 -4 -4 -10z"/>
<path d="M4066 3626 c7 -19 20 -21 30 -3 4 6 4 9 -1 5 -4 -4 -14 -3 -22 4 -11
8 -12 7 -7 -6z"/>
<path d="M4164 3626 c-10 -8 -16 -18 -11 -22 4 -4 7 -2 7 4 0 7 5 12 10 12 6
0 9 -5 8 -12 -2 -6 5 -14 15 -16 9 -2 17 1 17 7 0 6 -7 8 -15 5 -10 -4 -13 0
-10 15 5 25 4 25 -21 7z"/>
<path d="M4117 3613 c4 -10 2 -14 -5 -9 -6 4 -16 -3 -22 -16 -9 -20 -9 -21 2
-7 7 9 18 16 23 17 13 1 19 32 6 32 -6 0 -7 -7 -4 -17z"/>
<path d="M4226 3618 c3 -5 10 -6 15 -3 13 9 11 12 -6 12 -8 0 -12 -4 -9 -9z"/>
<path d="M4220 3581 c0 -14 -5 -18 -19 -14 -10 3 -21 1 -24 -4 -3 -5 7 -8 21
-7 20 0 28 7 30 22 2 12 1 22 -2 22 -3 0 -6 -9 -6 -19z"/>
<path d="M4152 3574 c-7 -8 -8 -14 -3 -14 10 0 25 19 20 25 -2 1 -10 -3 -17
-11z"/>
<path d="M4094 3558 c-4 -5 -3 -12 0 -15 3 -4 6 -1 6 6 0 7 4 10 9 6 5 -3 12
-2 15 3 3 5 -2 9 -10 9 -8 0 -17 -4 -20 -9z"/>
<path d="M4232 3550 c-7 -11 -8 -20 -3 -20 9 0 24 30 18 36 -1 2 -8 -6 -15
-16z"/>
<path d="M4284 3555 c-4 -8 -11 -12 -18 -8 -8 5 -8 3 0 -8 6 -8 10 -24 8 -36
-2 -13 0 -23 5 -23 4 0 7 12 6 28 -1 15 2 35 7 45 5 9 6 17 3 17 -3 0 -8 -7
-11 -15z"/>
<path d="M4065 3540 c-3 -5 -1 -10 4 -10 6 0 11 5 11 10 0 6 -2 10 -4 10 -3 0
-8 -4 -11 -10z"/>
<path d="M4120 3540 c-8 -5 -10 -10 -5 -10 6 0 17 5 25 10 8 5 11 10 5 10 -5
0 -17 -5 -25 -10z"/>
<path d="M4185 3539 c-4 -6 -5 -12 -2 -15 2 -3 7 2 10 11 7 17 1 20 -8 4z"/>
<path d="M4306 3542 c-2 -4 4 -8 14 -8 10 0 16 4 14 8 -3 4 -9 8 -14 8 -5 0
-11 -4 -14 -8z"/>
<path d="M4135 3519 c-4 -6 -5 -12 -2 -15 2 -3 7 2 10 11 7 17 1 20 -8 4z"/>
<path d="M4058 3508 c6 -6 18 -8 28 -6 14 3 12 5 -9 10 -19 3 -25 2 -19 -4z"/>
<path d="M4176 3502 c-3 -5 1 -9 9 -9 8 0 12 4 9 9 -3 4 -7 8 -9 8 -2 0 -6 -4
-9 -8z"/>
<path d="M4235 3499 c-11 -16 -1 -19 13 -3 7 8 8 14 3 14 -5 0 -13 -5 -16 -11z"/>
<path d="M4370 3501 c0 -6 4 -13 10 -16 6 -3 7 1 4 9 -7 18 -14 21 -14 7z"/>
<path d="M4110 3490 c0 -5 5 -10 11 -10 5 0 7 5 4 10 -3 6 -8 10 -11 10 -2 0
-4 -4 -4 -10z"/>
<path d="M4155 3469 c-4 -6 -5 -12 -2 -15 2 -3 7 2 10 11 7 17 1 20 -8 4z"/>
<path d="M4239 3453 c-13 -17 -13 -17 6 -3 11 8 22 16 24 17 2 2 0 3 -6 3 -6
0 -17 -8 -24 -17z"/>
<path d="M4310 3460 c0 -5 5 -10 10 -10 6 0 10 5 10 10 0 6 -4 10 -10 10 -5 0
-10 -4 -10 -10z"/>
<path d="M4197 3449 c7 -7 15 -10 18 -7 3 3 -2 9 -12 12 -14 6 -15 5 -6 -5z"/>
<path d="M4108 3431 c4 -10 1 -12 -8 -6 -9 6 -11 4 -5 -5 6 -10 11 -9 21 4 7
11 18 15 25 10 7 -4 10 -3 5 4 -10 17 -45 11 -38 -7z"/>
<path d="M4270 3420 c0 -5 5 -10 11 -10 5 0 7 5 4 10 -3 6 -8 10 -11 10 -2 0
-4 -4 -4 -10z"/>
<path d="M4100 3391 c0 -6 4 -13 10 -16 6 -3 7 1 4 9 -7 18 -14 21 -14 7z"/>
<path d="M4175 3390 c-3 -5 -12 -7 -20 -3 -8 3 -15 3 -15 0 0 -13 30 -14 40
-1 7 8 10 14 7 14 -3 0 -8 -4 -12 -10z"/>
<path d="M4150 3356 c0 -2 8 -10 18 -17 15 -13 16 -12 3 4 -13 16 -21 21 -21
13z"/>
<path d="M4207 3259 c7 -7 15 -10 18 -7 3 3 -2 9 -12 12 -14 6 -15 5 -6 -5z"/>
<path d="M2490 556 c0 -2 8 -10 18 -17 15 -13 16 -12 3 4 -13 16 -21 21 -21
13z"/>
<path d="M3230 223 c0 -6 8 -17 18 -24 16 -13 16 -13 2 6 -8 11 -16 22 -17 24
-2 2 -3 0 -3 -6z"/>
<path d="M3076 147 c3 -10 9 -15 12 -12 3 3 0 11 -7 18 -10 9 -11 8 -5 -6z"/>
</g>
</svg>
